<svg width="118" height="50" viewBox="0 0 118 50" fill="none" xmlns="http://www.w3.org/2000/svg">
<g clip-path="url(#clip0_1_57)">
<path d="M47.765 1.63492C47.3687 0.622041 46.6531 0 45.8714 0H6.76538C5.9837 0 5.25707 0.616536 4.87173 1.63492L0.242205 13.6188C-0.0770728 14.4831 -0.0770728 15.4244 0.242205 16.2942L4.87173 28.2781C5.25707 29.291 5.9837 29.924 6.76538 29.924H45.8714C46.6531 29.924 47.3687 29.291 47.765 28.2781L52.3836 16.2942C52.7194 15.4299 52.7194 14.4886 52.3836 13.6188L47.765 1.63492ZM10.7619 27.3973C10.6132 27.4579 10.4646 27.4854 10.316 27.4854C9.82054 27.4854 9.35263 27.1882 9.16547 26.6927L5.09192 16.3162C4.75613 15.6501 4.74512 14.7308 5.10293 13.9657L8.67004 3.50105C8.89023 2.84598 9.58383 2.49917 10.2444 2.71937C10.8885 2.93956 11.2353 3.64968 11.0096 4.29374L7.43146 14.8299C7.40944 14.8794 7.38192 14.94 7.3599 14.9895C7.31035 15.0886 7.31035 15.2097 7.3599 15.3253L11.472 25.7844C11.7197 26.4285 11.4114 27.1441 10.7674 27.3918L10.7619 27.3973ZM30.4084 26.5056C30.3699 26.5166 30.3369 26.5441 30.2984 26.5551H22.2889C22.3274 26.4835 22.2504 26.5056 22.2393 26.5056C21.9806 26.467 21.821 26.3074 21.7549 26.0707C21.7164 25.9496 21.7329 25.7844 21.7659 25.6633C22.1017 24.6504 23.0926 23.8908 24.155 23.8412C24.7605 23.8137 25.3826 23.8302 25.9991 23.8137H28.179C29.2579 23.8247 30.0727 24.2816 30.6286 25.2119C30.7497 25.4101 30.8653 25.6083 30.8764 25.856C30.9039 26.1533 30.7057 26.423 30.4084 26.5001V26.5056ZM32.1039 18.2869C31.647 18.7823 31.2397 19.3163 30.8929 19.8943C30.3864 20.7476 30.0396 21.6779 29.8525 22.6577C29.8415 22.7458 29.8139 22.7678 29.7314 22.7293C29.1368 22.5091 28.5203 22.4706 27.8873 22.4706H24.733C24.1165 22.4706 23.4944 22.5091 22.8999 22.7293C22.8008 22.7678 22.7788 22.7403 22.7623 22.6412C22.5256 21.4632 22.0962 20.3732 21.4136 19.3879C21.1439 19.0025 20.8191 18.6557 20.5108 18.2869C20.2026 17.9181 20.1916 17.6924 20.4503 17.285C21.0338 16.4208 21.6008 15.562 22.1733 14.6978C23.3018 13.0133 24.4247 11.3178 25.5532 9.63338C25.5642 9.60586 25.5918 9.57283 25.6138 9.54531C25.6138 9.54531 25.623 9.54897 25.6413 9.55631V15.7217C25.6413 15.8318 25.6138 15.8813 25.5202 15.9199C24.7385 16.2281 24.2211 17.0704 24.3091 17.9126C24.3972 18.8539 25.0138 19.5585 25.9441 19.7457C27.0725 19.9824 28.1845 19.1787 28.3221 18.0227C28.4322 17.0704 27.9753 16.2887 27.0836 15.8923C27.012 15.8648 26.9955 15.8042 26.9955 15.7327V9.59485C26.9955 9.59485 26.9955 9.57283 27.0065 9.5343C27.0285 9.57283 27.045 9.58384 27.067 9.60586C28.6139 11.9234 30.1607 14.2464 31.7076 16.5639C31.8672 16.8116 32.0269 17.0593 32.192 17.3071C32.4397 17.6924 32.4287 17.9511 32.1204 18.2869H32.1039ZM25.6523 17.7695C25.6413 17.4116 25.9386 17.1144 26.2964 17.1144C26.6542 17.1144 26.9514 17.4116 26.9514 17.7695C26.9514 18.1273 26.6542 18.4245 26.2964 18.4245C25.9386 18.4245 25.6523 18.1273 25.6523 17.7695ZM37.7849 6.97457C37.7573 7.06264 37.7353 7.14522 37.6968 7.23329C37.5757 7.51954 37.3115 7.61863 37.0142 7.61863C36.161 7.62964 35.3187 7.62964 34.4655 7.61863C34.3279 7.61863 34.1792 7.56909 34.0581 7.51954C33.8489 7.42046 33.7499 7.23329 33.7223 7.0131C33.7113 6.892 33.7113 6.76539 33.7113 6.62777V6.29197H30.9259C31.1241 6.42959 31.2837 6.53969 31.4433 6.6608C32.236 7.22779 32.8911 7.91038 33.4361 8.70307C33.9315 9.43521 34.3168 10.2004 34.5756 11.0426C34.7848 11.6867 34.9224 12.3527 34.9719 13.0353C34.9829 13.1344 35.0215 13.184 35.1095 13.2225C35.8747 13.5583 36.3206 14.1363 36.3701 14.995C36.4307 16.0355 35.627 16.9658 34.5976 17.0648C33.5572 17.1749 32.5773 16.4703 32.4067 15.4409C32.2856 14.7749 32.4562 14.1913 32.9407 13.6959C33.1278 13.5088 33.337 13.3491 33.5737 13.239C33.6453 13.217 33.6618 13.1785 33.6618 13.1014C33.5627 12.1986 33.3425 11.3289 32.9462 10.5031C32.4122 9.41319 31.669 8.49939 30.7057 7.76726C29.9515 7.18375 29.0818 6.7764 28.157 6.52868C28.0854 6.51767 28.0689 6.5562 28.0359 6.58923C27.8873 6.7764 27.7496 6.97457 27.579 7.1232C27.1221 7.54156 26.5661 7.67918 25.9716 7.56909C25.4046 7.47 24.9697 7.18375 24.6614 6.70483C24.5807 6.58006 24.4688 6.53969 24.3257 6.58373C23.1146 6.93053 22.0577 7.52505 21.1549 8.41682C20.687 8.90124 20.2631 9.41869 19.9273 10.0132C19.5695 10.6463 19.2612 11.3123 19.1236 12.0445C19.0521 12.4023 19.0135 12.7766 18.953 13.1344C18.942 13.206 18.9915 13.2225 19.0411 13.2555C19.6246 13.5418 20.0319 13.9712 20.1805 14.6042C20.4503 15.6831 19.7732 16.7731 18.6943 17.0318C17.6814 17.2795 16.652 16.685 16.3272 15.6831C16.0079 14.6923 16.5144 13.6299 17.4777 13.2445C17.5658 13.206 17.6263 13.173 17.6373 13.0464C17.6759 12.4298 17.797 11.8078 17.9731 11.2133C18.2319 10.349 18.6172 9.5398 19.1126 8.78564C19.5805 8.09204 20.142 7.4755 20.7971 6.94154C21.0448 6.73236 21.3035 6.5562 21.5623 6.37455C21.5843 6.34702 21.6118 6.325 21.6613 6.30298H18.8979V6.73786C18.8979 6.87548 18.8869 6.99659 18.8594 7.1232C18.7988 7.40945 18.6007 7.55808 18.3254 7.61863C18.2263 7.62964 18.1163 7.64615 18.0172 7.64615H15.6776C15.6281 7.64615 15.5785 7.64615 15.529 7.63514C15.0831 7.5856 14.8849 7.39844 14.8354 6.94154C14.8244 6.88099 14.8244 6.83144 14.8244 6.77089C14.8244 6.00573 14.8134 5.23505 14.8244 4.46989C14.8244 4.35979 14.8354 4.23318 14.8629 4.12309C14.9235 3.87537 15.0831 3.71573 15.3308 3.65518C15.4299 3.63316 15.54 3.61665 15.6391 3.61665C16.4428 3.61665 17.2465 3.60564 18.0557 3.61665C18.2153 3.61665 18.3915 3.65518 18.5401 3.71573C18.7493 3.81482 18.8594 4.00198 18.8869 4.22217C18.8979 4.43136 18.8979 4.64054 18.8979 4.85522V4.95431H19.019C20.7916 4.95431 22.5476 4.95431 24.3036 4.96532C24.3917 4.96532 24.4247 4.9433 24.4633 4.86623C24.8211 4.024 25.6028 3.55609 26.5056 3.63867C27.2707 3.71023 27.8047 4.14511 28.1405 4.83871C28.179 4.92679 28.212 4.95982 28.3001 4.95982C30.0561 4.94881 31.8177 4.94881 33.5737 4.94881H33.7113C33.7113 4.83871 33.7003 4.72861 33.7113 4.61301C33.7113 4.45337 33.7113 4.30475 33.7333 4.15612C33.7829 3.86987 33.9921 3.68821 34.2893 3.63867C34.3774 3.61114 34.4765 3.61114 34.5591 3.61114H36.9096C37.1078 3.61114 37.2949 3.62215 37.4656 3.73225C37.6142 3.83133 37.7023 3.96895 37.7353 4.12859C37.7353 4.16713 37.7628 4.20015 37.7739 4.22768V6.99108L37.7849 6.97457ZM47.4678 16.4208L43.4438 26.6982C43.2566 27.1937 42.7887 27.4909 42.2933 27.4909C42.1447 27.4909 41.996 27.4634 41.8474 27.4028C41.2033 27.1551 40.8951 26.4395 41.1428 25.7954L45.2053 15.4189C45.3044 15.2207 45.3044 15.0996 45.2549 15.0006C45.2163 14.951 45.2053 14.8905 45.1778 14.8409L41.5997 4.30475C41.3795 3.66069 41.7208 2.95607 42.3648 2.73038C43.0089 2.51018 43.7135 2.85148 43.9392 3.51206L47.4898 13.9712C47.8586 14.7363 47.8476 15.6556 47.4623 16.4208H47.4678Z" fill="#D9D9D9"/>
<path d="M88.8473 1.2771H84.548C83.9205 1.2771 83.348 1.64592 83.0838 2.21291L73.9899 22.0357C73.9018 22.2283 73.6265 22.2283 73.5385 22.0357L64.4446 2.21842C64.1803 1.64592 63.6133 1.2826 62.9803 1.2826H58.637C57.7507 1.2826 57.0296 2.00373 57.0296 2.89V28.2506C57.0296 29.1368 57.7507 29.858 58.637 29.858H61.5655C62.4518 29.858 63.1729 29.1368 63.1729 28.2506V12.4353C63.1729 12.1656 63.5363 12.0885 63.6464 12.3362L71.0063 28.9056C71.265 29.4891 71.843 29.8635 72.476 29.8635H75.0358C75.6743 29.8635 76.2523 29.4891 76.5055 28.9056L83.8214 12.3472C83.9315 12.105 84.2948 12.1821 84.2948 12.4463V28.2561C84.2948 29.1423 85.0159 29.8635 85.9022 29.8635H88.8308C89.717 29.8635 90.4382 29.1423 90.4382 28.2561V2.89C90.4382 2.00373 89.717 1.2826 88.8308 1.2826L88.8473 1.2771Z" fill="#D9D9D9"/>
<path d="M116.586 17.2906C115.678 16.2006 114.599 15.3804 113.338 14.8354C112.077 14.2905 110.454 13.7455 108.461 13.2005C106.997 12.7931 105.863 12.4298 105.059 12.1161C104.255 11.8023 103.578 11.3949 103.039 10.8885C102.499 10.3821 102.224 9.749 102.224 8.98384C102.224 7.89389 102.582 7.05716 103.297 6.48466C104.013 5.91216 104.971 5.62592 106.176 5.62592C107.553 5.62592 108.659 5.94519 109.496 6.58925C110.046 7.01312 110.426 7.50855 110.641 8.08105C110.861 8.67006 111.472 9.02787 112.105 9.02787H115.65C116.757 9.02787 117.527 7.93793 117.18 6.89202C116.668 5.32315 115.716 4.04054 114.329 3.03316C112.353 1.60191 109.782 0.886292 106.622 0.886292C104.514 0.886292 102.642 1.22208 101.002 1.88816C99.3614 2.55975 98.0843 3.51758 97.1815 4.77267C96.2732 6.02776 95.8218 7.50305 95.8218 9.19302C95.8218 10.9931 96.2677 12.4353 97.1595 13.5143C98.0513 14.5932 99.1192 15.3969 100.363 15.9309C101.607 16.4648 103.226 17.0043 105.219 17.5493C106.683 17.9346 107.833 18.2814 108.665 18.5952C109.501 18.909 110.195 19.3383 110.751 19.8833C111.307 20.4283 111.588 21.1274 111.588 21.9696C111.588 23.01 111.18 23.8468 110.36 24.4853C109.54 25.1294 108.411 25.4487 106.975 25.4487C105.538 25.4487 104.464 25.1074 103.661 24.4248C103.121 23.9679 102.747 23.4064 102.527 22.7293C102.306 22.0522 101.624 21.6393 100.914 21.6393H97.5724C96.5099 21.6393 95.7283 22.6577 96.009 23.6816C96.2622 24.5954 96.6806 25.4266 97.2641 26.1808C98.2605 27.4634 99.6146 28.4488 101.327 29.1314C103.039 29.814 104.965 30.1553 107.101 30.1553C109.353 30.1553 111.301 29.7644 112.942 28.9882C114.582 28.2121 115.826 27.1662 116.674 25.856C117.522 24.5459 117.946 23.1256 117.946 21.5953C117.946 19.8228 117.494 18.386 116.586 17.2961V17.2906Z" fill="#D9D9D9"/>
<path d="M8.48287 38.0931C8.90123 37.2839 9.47924 36.6564 10.2224 36.1995C10.9655 35.7426 11.8023 35.5169 12.7326 35.5169C13.9491 35.5169 14.9565 35.7977 15.7547 36.3646C16.5529 36.9316 17.1309 37.7133 17.4997 38.7097H17.2025C16.8832 37.8289 16.3437 37.1188 15.584 36.5848C14.8189 36.0509 13.8721 35.7811 12.7326 35.7811C11.8793 35.7811 11.1087 35.9848 10.4151 36.3977C9.72145 36.8105 9.17647 37.3995 8.77462 38.1647C8.37277 38.9299 8.1746 39.8327 8.1746 40.8621C8.1746 41.8915 8.37277 42.7722 8.77462 43.5374C9.17647 44.3025 9.72695 44.8861 10.4261 45.2989C11.1252 45.7118 11.8958 45.9155 12.7381 45.9155C13.8776 45.9155 14.8299 45.6512 15.5896 45.1228C16.3492 44.5943 16.8942 43.8897 17.208 43.0034H17.5052C17.1364 44.0053 16.5584 44.7815 15.7602 45.343C14.962 45.9044 13.9546 46.1797 12.7381 46.1797C11.8078 46.1797 10.971 45.954 10.2279 45.5026C9.48474 45.0512 8.90674 44.4237 8.48837 43.6145C8.07552 42.8053 7.86633 41.8915 7.86633 40.8566C7.86633 39.8217 8.07552 38.8913 8.48837 38.0876L8.48287 38.0931Z" fill="#D9D9D9"/>
<path d="M21.1989 45.6842C20.6044 45.3539 20.1365 44.875 19.7952 44.2585C19.4539 43.642 19.2833 42.9098 19.2833 42.0676C19.2833 41.2254 19.4539 40.4932 19.7952 39.8767C20.1365 39.2601 20.6044 38.7812 21.1989 38.4509C21.7934 38.1206 22.4595 37.9555 23.2027 37.9555C23.9458 37.9555 24.6119 38.1206 25.2064 38.4509C25.8009 38.7812 26.2633 39.2601 26.6046 39.8767C26.9404 40.4932 27.1111 41.2254 27.1111 42.0676C27.1111 42.9098 26.9404 43.642 26.6046 44.2585C26.2688 44.875 25.8009 45.3539 25.2064 45.6842C24.6119 46.0145 23.9458 46.1797 23.2027 46.1797C22.4595 46.1797 21.7934 46.0145 21.1989 45.6842ZM24.9862 45.4916C25.5312 45.2108 25.9716 44.7814 26.3074 44.2089C26.6432 43.6364 26.8138 42.9208 26.8138 42.0676C26.8138 41.2143 26.6432 40.5042 26.3074 39.9262C25.9716 39.3537 25.5312 38.9243 24.9862 38.6436C24.4413 38.3629 23.8467 38.2197 23.2027 38.2197C22.5586 38.2197 21.9641 38.3629 21.4136 38.6436C20.8631 38.9243 20.4228 39.3592 20.0815 39.9372C19.7457 40.5152 19.575 41.2254 19.575 42.0676C19.575 42.9098 19.7457 43.6199 20.0815 44.1979C20.4173 44.7759 20.8631 45.2108 21.4136 45.4916C21.9641 45.7723 22.5586 45.9154 23.2027 45.9154C23.8467 45.9154 24.4413 45.7723 24.9862 45.4916Z" fill="#D9D9D9"/>
<path d="M29.3846 39.8767C29.7094 39.2602 30.1718 38.7812 30.7663 38.4509C31.3608 38.1207 32.0379 37.9555 32.8031 37.9555C33.7224 37.9555 34.504 38.1977 35.1426 38.6766C35.7811 39.1556 36.2105 39.7666 36.4252 40.5097V35.0875H36.7059V46.0806H36.4252V43.6144C36.205 44.3686 35.7811 44.9851 35.1426 45.464C34.504 45.943 33.7224 46.1852 32.8031 46.1852C32.0379 46.1852 31.3608 46.02 30.7663 45.6897C30.1718 45.3595 29.7094 44.8805 29.3846 44.264C29.0598 43.6475 28.8947 42.9153 28.8947 42.0731C28.8947 41.2309 29.0598 40.4987 29.3846 39.8822V39.8767ZM35.9573 40.0528C35.6435 39.4748 35.2142 39.0234 34.6637 38.6987C34.1132 38.3794 33.4912 38.2142 32.7975 38.2142C32.0654 38.2142 31.4269 38.3684 30.8874 38.6766C30.3479 38.9849 29.9296 39.4253 29.6323 40.0088C29.335 40.5868 29.1864 41.2749 29.1864 42.0676C29.1864 42.8603 29.335 43.5484 29.6323 44.1264C29.9296 44.7044 30.3479 45.1503 30.8874 45.4585C31.4269 45.7668 32.0654 45.9209 32.7975 45.9209C33.4912 45.9209 34.1132 45.7613 34.6637 45.4365C35.2142 45.1172 35.6435 44.6659 35.9573 44.0823C36.2711 43.5043 36.4252 42.8328 36.4252 42.0676C36.4252 41.3024 36.2711 40.6364 35.9573 40.0528Z" fill="#D9D9D9"/>
<path d="M44.9961 45.2329C45.6127 44.776 45.9815 44.1539 46.1081 43.3612H46.4054C46.2677 44.2035 45.8714 44.8861 45.2218 45.4035C44.5723 45.921 43.741 46.1852 42.7171 46.1852C41.974 46.1852 41.3134 46.02 40.7244 45.6953C40.1354 45.3705 39.684 44.8916 39.3482 44.2695C39.0179 43.6475 38.8528 42.9153 38.8528 42.0731C38.8528 41.2309 39.0179 40.4987 39.3482 39.8767C39.6785 39.2547 40.1354 38.7757 40.7244 38.451C41.3079 38.1262 41.974 37.961 42.7171 37.961C43.4988 37.961 44.1704 38.1262 44.7209 38.4565C45.2769 38.7867 45.6952 39.2161 45.976 39.7391C46.2567 40.262 46.3998 40.818 46.3998 41.4015C46.3998 41.7593 46.3998 42.0236 46.3833 42.2052H39.15C39.1611 43.0254 39.3317 43.7135 39.662 44.2695C39.9923 44.8255 40.4272 45.2384 40.9611 45.5081C41.4951 45.7833 42.0786 45.9155 42.7116 45.9155C43.6144 45.9155 44.3686 45.6898 44.9851 45.2329H44.9961ZM40.9721 38.6271C40.4382 38.9023 40.0033 39.3152 39.673 39.8657C39.3427 40.4217 39.1721 41.1098 39.1611 41.93H46.1411C46.1907 41.1098 46.0586 40.4217 45.7503 39.8657C45.4365 39.3097 45.0126 38.8968 44.4732 38.6271C43.9337 38.3574 43.3502 38.2198 42.7282 38.2198C42.1061 38.2198 41.5116 38.3574 40.9776 38.6271H40.9721Z" fill="#D9D9D9"/>
<path d="M59.3031 44.253L61.0701 46.0806H60.7123L59.138 44.4622C58.6205 45.0787 58.0866 45.5246 57.5251 45.8053C56.9636 46.0861 56.3195 46.2292 55.5874 46.2292C54.9543 46.2292 54.3818 46.0971 53.8699 45.8329C53.3579 45.5686 52.9616 45.2053 52.6753 44.7319C52.3891 44.264 52.246 43.7245 52.246 43.119C52.246 42.3759 52.4607 41.7428 52.8845 41.2088C53.3084 40.6804 53.9194 40.262 54.7121 39.9538L54.7396 39.9372C54.3213 39.5134 54.013 39.1115 53.8093 38.7427C53.6057 38.3739 53.5066 37.9885 53.5066 37.5922C53.5066 36.9757 53.7213 36.4857 54.1506 36.1059C54.58 35.7316 55.136 35.5389 55.8241 35.5389C56.2094 35.5389 56.5782 35.616 56.925 35.7756C57.2718 35.9353 57.5526 36.1665 57.7673 36.4747C57.982 36.783 58.0865 37.1408 58.0865 37.5592H57.7893C57.7893 37.0252 57.5911 36.5958 57.2003 36.2821C56.8094 35.9628 56.3525 35.8086 55.8241 35.8086C55.2186 35.8086 54.7341 35.9683 54.3598 36.2931C53.991 36.6123 53.8038 37.0417 53.8038 37.5757C53.8038 37.9445 53.8974 38.2968 54.0846 38.6381C54.2717 38.9794 54.558 39.3427 54.9488 39.7281L59.0939 44.0383C59.5013 43.5209 59.9417 42.8493 60.4151 42.018L61.1582 40.7244H61.472L60.5802 42.2823C60.1068 43.1025 59.6774 43.7576 59.3031 44.242V44.253ZM57.4095 45.5356C57.9379 45.2659 58.4444 44.8365 58.9343 44.253L54.9543 40.1684L54.7892 40.229C53.2919 40.796 52.5432 41.7593 52.5432 43.1245C52.5432 43.6695 52.6753 44.1539 52.9396 44.5833C53.2038 45.0071 53.5671 45.3429 54.0295 45.5852C54.4919 45.8274 55.0149 45.9485 55.5874 45.9485C56.27 45.9485 56.8755 45.8109 57.4095 45.5411V45.5356Z" fill="#D9D9D9"/>
<path d="M74.0284 36.9867C74.9697 37.9005 75.4376 39.1831 75.4376 40.851C75.4376 42.519 74.9697 43.8016 74.0284 44.7154C73.0871 45.6292 71.7164 46.0806 69.9108 46.0806H67.1639V35.6215H69.9108C71.7109 35.6215 73.0871 36.0784 74.0284 36.9867ZM73.8192 44.5062C74.7 43.6365 75.1404 42.4144 75.1404 40.851C75.1404 39.2877 74.7 38.0656 73.8192 37.1959C72.9385 36.3261 71.6338 35.8857 69.9108 35.8857H67.4612V45.8109H69.9108C71.6338 45.8109 72.9385 45.376 73.8192 44.5007V44.5062Z" fill="#D9D9D9"/>
<path d="M83.3535 45.2329C83.97 44.776 84.3389 44.1539 84.4655 43.3612H84.7627C84.6251 44.2035 84.2288 44.8861 83.5792 45.4035C82.9296 45.921 82.0984 46.1852 81.0745 46.1852C80.3314 46.1852 79.6708 46.02 79.0818 45.6953C78.4928 45.3705 78.0414 44.8916 77.7056 44.2695C77.3698 43.6475 77.2101 42.9153 77.2101 42.0731C77.2101 41.2309 77.3753 40.4987 77.7056 39.8767C78.0359 39.2547 78.4928 38.7757 79.0818 38.451C79.6653 38.1262 80.3314 37.961 81.0745 37.961C81.8562 37.961 82.5278 38.1262 83.0783 38.4565C83.6342 38.7867 84.0526 39.2161 84.3333 39.7391C84.6141 40.262 84.7572 40.818 84.7572 41.4015C84.7572 41.7593 84.7572 42.0236 84.7407 42.2052H77.5074C77.5184 43.0254 77.6891 43.7135 78.0193 44.2695C78.3496 44.8255 78.7845 45.2384 79.3185 45.5081C79.8524 45.7833 80.436 45.9155 81.069 45.9155C81.9718 45.9155 82.7259 45.6898 83.3425 45.2329H83.3535ZM79.3295 38.6271C78.7955 38.9023 78.3606 39.3152 78.0304 39.8657C77.7001 40.4217 77.5294 41.1098 77.5184 41.93H84.4985C84.548 41.1098 84.4159 40.4217 84.1076 39.8657C83.7939 39.3097 83.37 38.8968 82.8305 38.6271C82.2911 38.3574 81.7076 38.2198 81.0855 38.2198C80.4635 38.2198 79.869 38.3574 79.335 38.6271H79.3295Z" fill="#D9D9D9"/>
<path d="M87.372 45.6457C86.8325 45.2879 86.5187 44.7484 86.4307 44.0273H86.7279C86.7885 44.6218 87.0527 45.0842 87.5206 45.4145C87.9885 45.7448 88.6546 45.9099 89.5189 45.9099C89.9537 45.9099 90.3391 45.8274 90.6694 45.6567C90.9996 45.4861 91.2584 45.2659 91.4345 44.9796C91.6107 44.6989 91.7043 44.3906 91.7043 44.0658C91.7043 43.708 91.6052 43.4218 91.4015 43.1961C91.1978 42.9759 90.9446 42.8052 90.6418 42.6841C90.3391 42.563 89.9262 42.4364 89.4033 42.2988C88.8197 42.1502 88.3463 42.0015 87.983 41.8529C87.6197 41.7043 87.3169 41.4786 87.0637 41.1703C86.8105 40.8621 86.6839 40.4547 86.6839 39.9538C86.6839 39.596 86.794 39.2657 87.0087 38.9574C87.2289 38.6491 87.5261 38.4069 87.906 38.2198C88.2858 38.0381 88.7152 37.9445 89.1886 37.9445C89.9978 37.9445 90.6528 38.1482 91.1483 38.5556C91.6437 38.9629 91.9079 39.5244 91.952 40.251H91.6547C91.6272 39.6565 91.4015 39.1666 90.9776 38.7868C90.5593 38.4069 89.9592 38.2143 89.1886 38.2143C88.7702 38.2143 88.3959 38.2913 88.0601 38.451C87.7243 38.6106 87.4601 38.8198 87.2674 39.0895C87.0747 39.3593 86.9756 39.6455 86.9756 39.9538C86.9756 40.3886 87.0912 40.741 87.3169 41.0107C87.5426 41.2804 87.8234 41.4786 88.1537 41.6052C88.484 41.7318 88.9298 41.8749 89.4858 42.0236C90.0528 42.1832 90.4932 42.3263 90.818 42.4529C91.1373 42.5796 91.4125 42.7777 91.6437 43.042C91.8694 43.3062 91.985 43.6475 91.985 44.0769C91.985 44.4732 91.8749 44.831 91.6602 45.1558C91.4455 45.4806 91.1428 45.7283 90.7684 45.9155C90.3941 46.0971 89.9702 46.1907 89.5078 46.1907C88.6271 46.1907 87.917 46.0145 87.3775 45.6567L87.372 45.6457Z" fill="#D9D9D9"/>
<path d="M93.9722 35.8967C93.9007 35.8197 93.8621 35.7261 93.8621 35.605C93.8621 35.4839 93.9007 35.3903 93.9722 35.3132C94.0438 35.2417 94.1374 35.2031 94.2475 35.2031C94.3576 35.2031 94.4456 35.2417 94.5227 35.3132C94.5943 35.3903 94.6328 35.4839 94.6328 35.605C94.6328 35.7261 94.5943 35.8197 94.5227 35.8967C94.4511 35.9683 94.3576 36.0068 94.2475 36.0068C94.1374 36.0068 94.0493 35.9683 93.9722 35.8967ZM94.3961 38.0601V46.0806H94.0988V38.0601H94.3961Z" fill="#D9D9D9"/>
<path d="M102.796 38.6656C103.435 39.139 103.864 39.7446 104.079 40.4767V38.0546H104.36V46.3723C104.36 47.1155 104.195 47.7595 103.87 48.31C103.545 48.8605 103.11 49.2789 102.571 49.5651C102.031 49.8514 101.442 49.9945 100.809 49.9945C99.8403 49.9945 99.0311 49.7578 98.3926 49.2899C97.754 48.822 97.3136 48.1834 97.0769 47.3797H97.3742C97.5999 48.1008 98.0072 48.6733 98.5852 49.0972C99.1632 49.5211 99.9064 49.7302 100.809 49.7302C101.426 49.7302 101.976 49.5926 102.472 49.3119C102.967 49.0366 103.358 48.6458 103.644 48.1394C103.93 47.6329 104.074 47.0439 104.074 46.3723V43.6364C103.853 44.3796 103.429 44.9906 102.791 45.464C102.152 45.9374 101.371 46.1797 100.451 46.1797C99.6862 46.1797 99.0091 46.0145 98.4146 45.6842C97.8201 45.3539 97.3577 44.875 97.0329 44.2585C96.7081 43.642 96.543 42.9098 96.543 42.0676C96.543 41.2254 96.7081 40.4932 97.0329 39.8767C97.3577 39.2601 97.8201 38.7812 98.4146 38.4509C99.0091 38.1206 99.6862 37.9555 100.451 37.9555C101.371 37.9555 102.152 38.1922 102.791 38.6711L102.796 38.6656ZM103.611 40.0528C103.297 39.4748 102.868 39.0234 102.317 38.6987C101.767 38.3794 101.145 38.2142 100.451 38.2142C99.7192 38.2142 99.0807 38.3684 98.5412 38.6766C98.0017 38.9849 97.5834 39.4253 97.2861 40.0088C96.9889 40.5868 96.8402 41.2749 96.8402 42.0676C96.8402 42.8603 96.9889 43.5484 97.2861 44.1264C97.5834 44.7044 98.0017 45.1503 98.5412 45.4585C99.0807 45.7668 99.7192 45.9209 100.451 45.9209C101.145 45.9209 101.767 45.7613 102.317 45.4365C102.868 45.1172 103.297 44.6658 103.611 44.0823C103.925 43.5043 104.079 42.8327 104.079 42.0676C104.079 41.3024 103.925 40.6363 103.611 40.0528Z" fill="#D9D9D9"/>
<path d="M112.65 38.7537C113.256 39.3372 113.558 40.218 113.558 41.396V46.0751H113.278V41.3685C113.278 40.3171 113.013 39.5189 112.49 38.9684C111.967 38.4179 111.246 38.1427 110.338 38.1427C109.43 38.1427 108.626 38.4509 108.048 39.073C107.475 39.6895 107.184 40.6033 107.184 41.8144V46.0806H106.886V38.0601H107.184V40.1684C107.371 39.4253 107.751 38.8583 108.312 38.4675C108.879 38.0766 109.551 37.8784 110.332 37.8784C111.274 37.8784 112.044 38.1702 112.65 38.7537Z" fill="#D9D9D9"/>
</g>
<defs>
<clipPath id="clip0_1_57">
<rect width="117.951" height="50" fill="white"/>
</clipPath>
</defs>
</svg>
