<?xml version="1.0" encoding="UTF-8"?>
<svg id="Camada_1" data-name="Camada 1" xmlns="http://www.w3.org/2000/svg" xmlns:xlink="http://www.w3.org/1999/xlink" viewBox="0 0 35 35">
  <defs>
    <style>
      .cls-1 {
        fill: url(#Gradiente_sem_nome_9);
      }

      .cls-2 {
        fill: #fff;
      }
    </style>
    <linearGradient id="Gradiente_sem_nome_9" data-name="Gradiente sem nome 9" x1="0" y1="17.5" x2="35" y2="17.5" gradientUnits="userSpaceOnUse">
      <stop offset="0" stop-color="#32529d"/>
      <stop offset="1" stop-color="#252d5f"/>
    </linearGradient>
  </defs>
  <ellipse class="cls-1" cx="17.5" cy="17.5" rx="17.5" ry="17.64"/>
  <path class="cls-2" d="m27.16,24.82c-.05-.05-.11-.11-.16-.16-.18-.18-.37-.37-.55-.55-.13-.13-.26-.26-.4-.4-.07-.07-.13-.13-.2-.2l-.75-.75c-.09-.09-.18-.18-.28-.28-.14-.14-.29-.29-.43-.43-.09-.09-.18-.18-.28-.28-.13-.13-.26-.26-.4-.4-.18-.18-.37-.37-.55-.55l-.95-.95c-.24-.24-.47-.47-.71-.71-.36-.36-.71-.71-1.07-1.07l-.99-.99c-.13-.13-.26-.26-.4-.4-.09-.09-.18-.18-.28-.28-.18-.18-.37-.37-.55-.55-.18-.14-.37-.29-.55-.43-.16-.09-.32-.18-.47-.28-.03-.01-.05-.03-.08-.04-.32-.12-.63-.24-.95-.36-.36-.12-.73-.18-1.11-.15-.38-.02-.75,0-1.11.12-.04,0-.08.02-.12.03-.18.06-.37.11-.55.17-.09.04-.18.08-.28.12-.18.1-.37.2-.55.3-.18.14-.37.29-.55.43-.16.16-.31.32-.47.48-.09.12-.18.24-.28.36-.18.37-.37.74-.55,1.11-.02.03-.03.07-.05.1-.2.67-.31,1.34-.19,2.04.05.3.16.6.24.9.11.42.31.78.58,1.11.09.12.18.24.28.36l.4.43.55.43c.18.11.37.23.55.34.09.04.18.08.28.12.17.06.34.11.51.17.07.02.13.05.2.07.18.03.37.05.55.08.13.01.26.03.39.04.55,0,1.11,0,1.66,0,.97,0,1.95,0,2.92,0,.04,0,.07,0,.11-.01-.02-.04-.02-.1-.05-.13-.31-.31-.62-.61-.93-.92-.32-.32-.63-.63-.95-.95-.26-.26-.53-.53-.79-.79l-.59-.59c-.14-.14-.29-.29-.43-.43-.26-.26-.53-.53-.79-.79-.18-.18-.37-.37-.55-.55-.18-.18-.37-.37-.55-.55-.05-.05-.11-.11-.16-.16,0-.02,0-.05,0-.07.07-.05.13-.11.2-.16.35-.17.71-.34,1.06-.51h1.1c.32.1.63.21.95.32.18.16.37.32.55.47.18.18.37.37.55.55l.55.55c.09.09.18.18.28.28.11.11.21.21.32.32.34.34.68.68,1.03,1.03.37.37.74.74,1.11,1.11.22.22.45.45.67.67l.99.99c.18.2.37.4.55.59.07.2.14.4.2.61.1.38-.02.73-.19,1.06,0,.02,0,.04,0,.06-.18.17-.37.34-.55.51-.18.06-.37.11-.55.17-.01,0-.03,0-.04,0-.87,0-1.74,0-2.61,0h-3.12c-.54,0-1.08,0-1.62,0-.07,0-.13,0-.2,0-.18,0-.37,0-.55,0-.18-.01-.37-.03-.55-.04-.04-.01-.08-.03-.12-.04l-.55-.12c-.09-.02-.18-.03-.28-.05-.18-.06-.37-.12-.55-.19-.18-.08-.37-.16-.55-.24-.18-.1-.37-.19-.55-.29-.13-.09-.26-.18-.4-.27-.09-.07-.18-.13-.28-.2-.09-.07-.18-.14-.28-.21-.18-.16-.37-.32-.55-.48-.18-.21-.37-.42-.55-.63-.13-.18-.26-.37-.4-.55-.06-.09-.11-.18-.17-.27-.22-.48-.44-.95-.66-1.43-.09-.37-.18-.74-.28-1.11-.04-.35-.08-.69-.11-1.04,0-.11.02-.23.03-.34.04-.34.07-.68.11-1.02l.25-1.22c.1-.24.21-.48.31-.72.18-.33.37-.66.55-.99.15-.2.3-.39.45-.59.18-.2.37-.4.55-.59.17-.16.34-.31.51-.47.11-.08.21-.16.32-.24.08-.05.16-.1.23-.16.14-.08.29-.17.43-.25.19-.1.37-.21.56-.31l.51-.19c.18-.06.37-.11.55-.17.11-.03.21-.05.32-.08.03,0,.05-.02.08-.03.14-.03.29-.06.43-.09.04,0,.08,0,.12,0,.18-.01.37-.03.55-.04.18-.01.37-.03.55-.04l.55.04c.09.01.18.03.28.04.14.01.29.03.43.04.26.07.53.13.79.2.18.06.37.11.55.17.37.18.74.36,1.11.54.22.15.45.3.67.45.33.29.66.58.99.87.37.37.74.74,1.11,1.11.22.22.45.45.67.67.32.32.63.63.95.95.18.18.37.37.55.55l.55.55c.18.18.37.37.55.55.09.09.18.18.28.28.09.09.18.18.28.28.22.22.45.45.67.67l.95.95.99.99.83.83c.21.3.43.6.64.9.06.38.14.76.19,1.15.05.37-.07.72-.19,1.07-.17.25-.35.5-.52.75-.06-.03-.13-.04-.18-.08-.18-.17-.35-.34-.53-.51-.08-.08-.16-.16-.24-.24-.09-.09-.18-.18-.28-.28l-.55-.59Z"/>
  <path class="cls-2" d="m21.43,8.67s.08.08.12.12l.51.51c.05.05.11.11.16.16l.43.43c.18.18.37.37.55.55.18.18.37.37.55.55.17.17.34.34.51.51.18.18.37.37.55.55.09.09.18.18.28.28.25.25.5.5.75.75.08.08.16.16.24.24.13.13.26.26.4.4l.55.55c.22.22.45.45.67.67.09.09.18.18.28.28.09.1.19.21.28.31.23.27.4.57.51.91.12.58.19,1.16,0,1.74-.16.37-.33.73-.64,1-.06-.05-.11-.09-.16-.13-.11-.1-.22-.2-.32-.3-.21-.2-.42-.41-.63-.61-.33-.33-.66-.66-.99-.99-.22-.22-.45-.45-.67-.67-.09-.09-.18-.18-.28-.28-.09-.09-.18-.18-.28-.28-.18-.18-.37-.37-.55-.55-.18-.18-.37-.37-.55-.55-.18-.18-.37-.37-.55-.55-.32-.32-.63-.63-.95-.95-.22-.22-.45-.45-.67-.67-.37-.37-.74-.74-1.11-1.11-.32-.32-.63-.63-.95-.95-.24-.24-.47-.47-.71-.71-.36-.36-.71-.71-1.07-1.07-.18-.18-.37-.37-.55-.55-.28-.28-.55-.55-.83-.83-.14-.18-.29-.37-.43-.55-.08-.18-.16-.37-.25-.55-.04-.3-.11-.6-.1-.89,0-.3.09-.59.14-.89.17-.3.35-.6.53-.89.02-.03.07-.04.11-.07.06.06.12.11.19.17.16.16.32.31.48.47.24.24.47.47.71.71.32.32.63.63.95.95.22.22.45.45.67.67.18.18.37.37.55.55.18.18.37.37.55.55.18.18.37.37.55.55.14.14.29.29.43.43Z"/>
  <path class="cls-2" d="m5.43,20.76c-.05,0-.11,0-.16,0-.18-.05-.37-.11-.55-.16-.17-.16-.34-.32-.51-.49-.23-.45-.24-.9-.03-1.36.01-.03.02-.06.03-.09.14-.14.29-.29.43-.43l.67-.17s.08,0,.12,0c.09.01.18.03.28.04.14.06.29.11.43.17.04.03.08.05.12.08.25.23.37.54.44.86.02.4-.07.78-.32,1.1-.04.04-.08.08-.12.12-.18.1-.37.19-.55.29-.09.01-.18.03-.28.04Z"/>
</svg>