<?xml version="1.0" encoding="UTF-8"?>
<svg id="Camada_1" data-name="Camada 1" xmlns="http://www.w3.org/2000/svg" xmlns:xlink="http://www.w3.org/1999/xlink" viewBox="0 0 35 35">
  <defs>
    <style>
      .cls-1 {
        fill: url(#Gradiente_sem_nome_6);
      }

      .cls-2 {
        clip-path: url(#clippath-2);
      }

      .cls-3 {
        fill: url(#Gradiente_sem_nome_3);
      }

      .cls-4 {
        fill: url(#Gradiente_sem_nome_4);
      }

      .cls-5 {
        clip-path: url(#clippath-6);
      }

      .cls-6 {
        clip-path: url(#clippath-1);
      }

      .cls-7 {
        clip-path: url(#clippath-4);
      }

      .cls-8 {
        fill: url(#Gradiente_sem_nome_2);
      }

      .cls-9 {
        clip-path: url(#clippath);
      }

      .cls-10 {
        clip-rule: evenodd;
      }

      .cls-10, .cls-11 {
        fill: none;
      }

      .cls-12 {
        clip-path: url(#clippath-3);
      }

      .cls-13 {
        clip-path: url(#clippath-5);
      }

      .cls-14 {
        fill: url(#Gradiente_sem_nome_5);
      }
    </style>
    <clipPath id="clippath">
      <rect class="cls-11" x="2.5" y="2.5" width="30" height="30"/>
    </clipPath>
    <clipPath id="clippath-1">
      <rect class="cls-11" x="2.49" y="2.51" width="30" height="30"/>
    </clipPath>
    <clipPath id="clippath-2">
      <path class="cls-10" d="m26.1,12.77h-.02s.02,0,.02,0h0Zm-.98-.36l-.24.24c-.12.12-.12.25,0,.37l.07.07h0s.4.41.4.41c.01.02.03.03.04.05.03.03.06.06.09.09.02.01.03.03.05.04.08.07.17.13.26.19.01,0,.02.01.03.02.35.22.75.34,1.17.35.03,0,.06,0,.09,0,0,0,.01,0,.02,0,.3,0,.59-.06.86-.16.26-.1.5-.25.71-.43.04-.03.07-.06.11-.1.04-.04.07-.07.1-.11.35-.39.54-.87.58-1.37,0-.09.01-.18,0-.27,0,0,0,0,0-.01l-.45-.09-.67.27c0,.06-.02.13-.03.19-.04.15-.1.3-.19.43,0,0,0,0,0,0-.04.06-.08.11-.13.16,0,0,0,0,0,0-.07.07-.15.13-.23.18-.07.04-.14.08-.22.11-.07.03-.15.05-.23.06-.07.01-.15.02-.22.02-.05,0-.1,0-.15,0-.1-.01-.21-.04-.3-.07-.06-.02-.13-.05-.19-.09-.07-.04-.13-.08-.19-.14h0s0,0,0,0l-.06-.06-.07-.08-.04-.04h-.01s-.22-.24-.22-.24l-.19-.19c-.12-.12-.25-.12-.36.01l-.03.03-.15.15Z"/>
    </clipPath>
    <linearGradient id="Gradiente_sem_nome_6" data-name="Gradiente sem nome 6" x1="24.79" y1="13.22" x2="29.49" y2="12.74" gradientUnits="userSpaceOnUse">
      <stop offset="0" stop-color="#81261d"/>
      <stop offset="1" stop-color="#e32413"/>
    </linearGradient>
    <clipPath id="clippath-3">
      <path class="cls-10" d="m23.86,13.31l.07-.07h0s.14-.14.14-.14l-.45-1.13-.02.02h0s-.24.25-.24.25l-.54.54c-.17.17-.39.29-.62.34-.04,0-.08.02-.13.02-.02,0-.03,0-.05,0-.03,0-.06,0-.09,0,0,0,0,0-.01,0-.18,0-.36-.04-.52-.11-.04-.02-.08-.04-.12-.06-.09-.05-.18-.12-.26-.2-.11-.11-.2-.24-.26-.38,0,0,0-.02-.01-.02l-.62-.23-.32-.12-.27-.1c0,.17.03.35.07.51.05.22.14.44.26.65.06.1.13.2.21.29.05.06.1.12.16.18.13.13.27.24.43.34.08.05.16.09.24.13.27.13.57.21.88.22.05,0,.09,0,.14,0h0c.09,0,.17,0,.26-.01.05,0,.1-.01.15-.02.48-.08.93-.31,1.28-.66l.24-.24h.01Z"/>
    </clipPath>
    <linearGradient id="Gradiente_sem_nome_2" data-name="Gradiente sem nome 2" x1="21.91" y1="10.74" x2="21.79" y2="13.41" gradientUnits="userSpaceOnUse">
      <stop offset="0" stop-color="#f39200"/>
      <stop offset="1" stop-color="#ffdb00"/>
    </linearGradient>
    <clipPath id="clippath-4">
      <path class="cls-10" d="m24.85,12.32l.05-.05s0,0,0,0l.07-.07.63-.63.15-.15.07-.07.36-.36s.02-.02.03-.03c.17-.16.38-.27.6-.31.05-.01.1-.02.16-.02l-.6-.19-.24-.07-.04-.06-.12-.17-.18-.26c-.15.09-.28.2-.41.33h0s-.2.21-.2.21l-.19.19-.2.2-.7.7s0,0,0,0l-.38.38-.03.03-.07.07.45,1.13.78-.78Z"/>
    </clipPath>
    <linearGradient id="Gradiente_sem_nome_3" data-name="Gradiente sem nome 3" x1="23.77" y1="12.64" x2="26.83" y2="10.31" gradientUnits="userSpaceOnUse">
      <stop offset="0" stop-color="#613063"/>
      <stop offset=".7" stop-color="#bc0e75"/>
      <stop offset="1" stop-color="#e4007e"/>
    </linearGradient>
    <clipPath id="clippath-5">
      <path class="cls-10" d="m28.05,11.05c.23.26.32.6.3.92l.67-.27.45.09c-.02-.52-.2-1.04-.56-1.47-.01-.01-.03-.03-.04-.04,0,0-.01-.01-.02-.02-.02-.03-.05-.05-.07-.08-.16-.16-.33-.28-.51-.39-.42-.24-.9-.34-1.37-.3-.03,0-.06,0-.09,0-.08,0-.15.02-.23.04-.23.05-.45.13-.66.25-.04.02-.07.04-.1.06l.18.26.12.17.04.06.24.07.6.19s.09,0,.13,0c.02,0,.05,0,.07,0,0,0,0,0,0,0,.22.02.44.09.63.23.05.04.1.08.15.12,0,0,.01,0,.02.01.02.02.05.05.07.08"/>
    </clipPath>
    <linearGradient id="Gradiente_sem_nome_4" data-name="Gradiente sem nome 4" x1="29.1" y1="10.72" x2="26.18" y2="10.72" gradientUnits="userSpaceOnUse">
      <stop offset="0" stop-color="#1f2b1a"/>
      <stop offset="1" stop-color="#0a9238"/>
    </linearGradient>
    <clipPath id="clippath-6">
      <path class="cls-10" d="m21.35,10.74c.47-.24,1.06-.16,1.46.23l.21.21.05.05.09.09h0s.17.18.17.18c.05.04.09.07.14.09.08.02.16,0,.24-.09l.42-.42c.14-.11.14-.23.01-.36l-.31-.31-.3-.3h0c-.05-.05-.11-.09-.16-.13-.13-.1-.27-.19-.42-.26-.02-.01-.05-.02-.07-.03-.19-.08-.39-.14-.59-.18-.04,0-.07-.01-.11-.02-.01,0-.02,0-.03,0-.33-.03-.67,0-.99.11-.09.03-.19.07-.28.11-.04.02-.07.03-.1.05-.16.08-.3.19-.44.31-.04.03-.07.07-.11.1,0,0,0,0,0,0,0,0-.01.01-.02.02-.02.02-.04.04-.06.06-.04.05-.08.09-.12.14-.18.24-.32.5-.4.78-.03.1-.05.19-.07.29-.02.15-.04.3-.03.45l.27.1.32.12.62.23c-.14-.32-.13-.68,0-1,.06-.14.14-.27.25-.38,0,0,0,0,.01-.01,0,0,0,0,0,0,.1-.1.21-.18.33-.24"/>
    </clipPath>
    <linearGradient id="Gradiente_sem_nome_5" data-name="Gradiente sem nome 5" x1="19.06" y1="11.74" x2="24.68" y2="10.12" gradientUnits="userSpaceOnUse">
      <stop offset="0" stop-color="#77cbe7"/>
      <stop offset="1" stop-color="#0c5ea8"/>
    </linearGradient>
  </defs>
  <g class="cls-9">
    <g class="cls-6">
      <path d="m9.6,16.52h0c.5,0,.88.35.88.88v4.73c-.53,0-.88-.34-.88-.9v-4.71Zm.9,6.49c.46,0,.88-.42.88-.88v-4.73c0-1.22-.88-1.78-1.78-1.78-.5,0-.9.39-.9.88v4.74c0,.97.73,1.76,1.79,1.76Zm1.79-.08h.48c.14,0,.21-.07.21-.21v-9.37c0-.14-.07-.21-.21-.21h-.48c-.14,0-.21.07-.21.21v9.37c0,.14.07.21.21.21Zm3.24,0h.67c.14,0,.21-.07.21-.21v-6.77c0-.14-.07-.21-.21-.21h-.48c-.14,0-.21.07-.21.21v6.1c-.59,0-.88-.24-.88-.9v-5.2c-.01-.14-.08-.21-.22-.21h-.46c-.14,0-.21.07-.21.21v5.2c0,1.19.67,1.78,1.79,1.78Zm3.23-.01c.13.01.21-.06.21-.2v-.48c0-.14-.07-.21-.21-.22-.45-.06-.69-.32-.69-.87v-4.53h.67c.14,0,.21-.07.21-.21v-.46c0-.14-.07-.21-.21-.21h-.69v-2.39c0-.14-.07-.21-.21-.21h-.46c-.14,0-.21.07-.21.21v7.8c0,.97.64,1.66,1.58,1.76Zm.98.01h.48c.14,0,.21-.07.21-.21v-6.77c0-.14-.07-.21-.21-.21h-.48c-.14,0-.21.07-.21.21v6.77c0,.14.07.21.21.21Zm3.16-5.52h0v4.73c-.53,0-.88-.34-.88-.9v-4.71c.5,0,.88.35.88.88Zm-1.78-.9v4.74c0,.97.73,1.76,1.79,1.76.46,0,.88-.42.88-.88v-4.73c0-1.22-.88-1.78-1.78-1.78-.5,0-.9.39-.9.88Zm4.25-.77h-.67c-.14,0-.21.07-.21.21v6.77c0,.14.07.21.21.21h.48c.14,0,.21-.07.21-.21v-6.1c.59,0,.88.24.88.89v5.2c.01.14.08.21.22.21h.46c.14,0,.21-.07.21-.21v-5.2c0-1.19-.67-1.78-1.79-1.78Zm-19.69,7.19h.69c1.1,0,1.78-.77,1.78-1.78s-1.75-5.34-1.75-6.24c0-.5.38-.88.9-.88h.63c.14,0,.21-.07.21-.21v-.48c0-.14-.07-.21-.21-.21h-.66c-1.2,0-1.78.83-1.78,1.78,0,.9,1.73,5.26,1.75,6.24,0,.52-.39.88-.9.88h-.64c-.14,0-.21.07-.21.21v.48c-.01.14.06.21.2.21Z"/>
      <path d="m22.57,24.16h0c.06-.07.15-.11.26-.11.07,0,.13.03.18.09.05.06.08.12.08.19,0,.03,0,.05-.03.07-.02.02-.04.03-.07.03h-.51c0-.11.04-.2.1-.27m.57.31s.06-.08.06-.14c0-.1-.04-.19-.11-.27-.07-.07-.16-.11-.27-.11-.16,0-.28.05-.36.16-.07.1-.11.22-.11.37s.04.28.12.38c.08.1.2.15.36.15.11,0,.21-.02.32-.05v-.11c-.11.04-.21.06-.32.06s-.19-.04-.26-.12c-.06-.07-.09-.17-.1-.28h.51c.06,0,.12-.02.16-.05Zm.87-.35c.11-.05.2-.08.27-.08.07,0,.12.02.17.07.05.05.07.11.07.17v.69h.12v-.69c0-.05-.01-.11-.04-.16.13-.06.22-.09.29-.09s.12.02.17.07c.05.05.07.11.07.17v.69h.12v-.69c0-.1-.03-.18-.1-.25-.07-.07-.15-.1-.25-.1-.03,0-.06,0-.09,0-.03,0-.07.02-.1.03-.03.01-.06.02-.08.03-.03.01-.06.02-.08.03-.07-.07-.15-.11-.25-.11-.03,0-.06,0-.1,0-.04,0-.08.02-.12.04l-.18.07v.92h.12v-.86Zm2.1-.03h0c.09-.03.18-.05.27-.05.12,0,.21.04.28.12.06.08.09.18.09.3s-.04.23-.11.31c-.08.09-.18.14-.3.14-.07,0-.15-.02-.24-.05v-.78Zm0,.89s.08.02.12.03c.04,0,.08.01.13.01.15,0,.28-.05.38-.16.1-.1.14-.23.14-.39s-.04-.28-.13-.38c-.09-.1-.21-.15-.36-.15-.14,0-.28.03-.4.08v1.51h.12v-.57Zm1.6-.88c.09-.03.18-.05.28-.05,0,0,.02,0,.03,0,.01,0,.03,0,.05,0v-.1s-.01,0-.03,0h-.04c-.15,0-.28.03-.41.08v.95h.12v-.89Zm1.13.06h0c.06-.07.15-.11.26-.11.07,0,.13.03.18.09.05.06.08.12.08.19,0,.03,0,.05-.03.07-.02.02-.04.03-.07.03h-.51c0-.11.04-.2.1-.27Zm.57.31s.06-.08.06-.14c0-.1-.04-.19-.11-.27-.07-.07-.16-.11-.27-.11-.16,0-.28.05-.36.16-.07.1-.11.22-.11.37s.04.28.12.38c.08.1.2.15.36.15.11,0,.21-.02.32-.05v-.11c-.11.04-.21.06-.32.06s-.19-.04-.26-.12c-.06-.07-.09-.17-.1-.28h.51c.06,0,.12-.02.16-.05Zm-7.87.4s-.1.05-.17.05c-.09,0-.18-.02-.27-.06v.12c.07.03.17.04.27.04.09,0,.17-.02.24-.06.08-.05.12-.13.12-.23,0-.09-.04-.17-.13-.23l-.25-.13c-.09-.04-.13-.1-.13-.16,0-.11.08-.17.23-.17.08,0,.15.02.23.05v-.1c-.08-.03-.16-.04-.24-.04-.09,0-.17.02-.23.06-.07.05-.1.12-.1.22,0,.04.01.08.03.12.02.04.06.07.1.09.04.02.08.05.12.06.04.02.08.04.12.06.09.05.13.11.13.17,0,.05-.03.1-.08.14Z"/>
      <g class="cls-2">
        <rect class="cls-1" x="24.75" y="11.71" width="4.72" height="2.55"/>
      </g>
      <g class="cls-12">
        <rect class="cls-8" x="19.54" y="11.93" width="4.54" height="2.33"/>
      </g>
      <g class="cls-7">
        <rect class="cls-3" x="23.62" y="9.86" width="3.36" height="3.24"/>
      </g>
      <g class="cls-13">
        <rect class="cls-4" x="25.81" y="9.46" width="3.66" height="2.52"/>
      </g>
      <g class="cls-5">
        <rect class="cls-14" x="19.53" y="9.47" width="4.74" height="2.9"/>
      </g>
    </g>
  </g>
</svg>